<svg fill="none" height="100%" width="100%" viewBox="0 0 512 512" xmlns:xlink="http://www.w3.org/1999/xlink" xmlns="http://www.w3.org/2000/svg"><g id="i0"><g transform="translate(245.578,256)"><g transform="scale(1.069,1.11)"><animateTransform repeatCount="indefinite" type="scale" attributeName="transform" dur="5s" begin="0s" calcMode="spline" values="1.069 1.11; 1.069 1.11; -0.001 1.03; 1.069 1.11; -0.001 1.03; 1.069 1.11; 1.069 1.11" keyTimes="0; 0.006667; 0.12; 0.393333; 0.706667; 0.973333; 1" keySplines="0 0 1 1; 0 0 1 1; 0 0 1 1; 0 0 1 1; 0 0 1 1; 0 0 1 1" fill="freeze" /><g transform="translate(-327.445,-264)"><g id="i1" transform="matrix(0.1,0,0,-0.1,0,534)"><g id="i2" transform="matrix(1,0,0,1,0,0)"><path fill="#000000" d="M2373,4453C1619,3509,1380,3203,1380,3185C1380,3177,1389,3165,1400,3157C1423,3141,1640,2943,1940,2665C2124,2495,2327,2307,2720,1945C2891,1787,3222,1495,3230,1495C3241,1495,3279,1540,3485,1795C3573,1904,3666,2018,3693,2048C3719,2078,3740,2107,3740,2111C3740,2120,3711,2145,3330,2465C3179,2592,2981,2758,2889,2835C2798,2912,2670,3019,2606,3073C2606,3073,2489,3172,2489,3172C2489,3172,2533,3223,2533,3223C2597,3300,2892,3662,3180,4020C3504,4422,3769,4750,3788,4773C3802,4789,3774,4790,3223,4790C3223,4790,2643,4790,2643,4790C2643,4790,2373,4453,2373,4453C2373,4453,2373,4453,2373,4453Z"><animate repeatCount="indefinite" attributeName="fill" dur="5s" begin="0s" fill="freeze" values="#000000; #000000; #0069cc; #000000; #0069cc; #000000; #0069cc; #0069cc" keyTimes="0; 0.006667; 0.153333; 0.2; 0.533334; 0.586667; 0.926667; 1" keySplines="0 0 1 1; 0 0 1 1; 0 0 1 1; 0 0 1 1; 0 0 1 1; 0 0 1 1; 0 0 1 1" calcMode="spline" /></path></g><g id="i3" transform="matrix(1,0,0,1,0,0)"><path fill="#000000" d="M3914,4588C3862,4532,3430,4004,3430,3996C3430,3994,3476,3952,3533,3903C3589,3853,3693,3762,3764,3699C3836,3636,3935,3549,3986,3505C4074,3428,4183,3330,4490,3055C4686,2879,4666,2892,4693,2926C4705,2942,4764,3012,4825,3081C4960,3235,5151,3457,5167,3479C5182,3499,5132,3546,4105,4482C4023,4558,3953,4620,3949,4620C3946,4620,3930,4605,3914,4588C3914,4588,3914,4588,3914,4588Z"><animate repeatCount="indefinite" attributeName="fill" dur="5s" begin="0s" fill="freeze" values="#000000; #000000; #0069cc; #000000; #0069cc; #000000; #0069cc; #0069cc" keyTimes="0; 0.006667; 0.113333; 0.233333; 0.48; 0.633333; 0.866667; 1" keySplines="0 0 1 1; 0 0 1 1; 0 0 1 1; 0 0 1 1; 0 0 1 1; 0 0 1 1; 0 0 1 1" calcMode="spline" /></path></g><g id="i4" transform="matrix(1,0,0,1,0,0)"><path fill="#000000" d="M3209,3758C3162,3701,3041,3557,2942,3438C2842,3319,2760,3217,2760,3211C2760,3206,2817,3155,2888,3099C2958,3042,3150,2883,3315,2746C3480,2609,3635,2480,3660,2460C3685,2440,3770,2371,3850,2305C3930,2240,3996,2185,3998,2184C4000,2183,3932,2099,3848,1999C3654,1767,3456,1526,3060,1040C2888,828,2738,645,2727,632C2727,632,2707,610,2707,610C2707,610,3291,610,3291,610C3291,610,3876,610,3876,610C3876,610,3935,688,3935,688C4025,806,4466,1372,4627,1578C4706,1678,4836,1844,4917,1948C4997,2051,5084,2159,5109,2189C5109,2189,5154,2243,5154,2243C5154,2243,5129,2264,5129,2264C5116,2275,4997,2380,4866,2495C4734,2611,4574,2750,4510,2805C4446,2860,4318,2971,4225,3051C4131,3131,4007,3239,3949,3291C3683,3527,3308,3855,3302,3858C3298,3859,3256,3814,3209,3758C3209,3758,3209,3758,3209,3758Z"><animate repeatCount="indefinite" attributeName="fill" dur="5s" begin="0s" fill="freeze" values="#000000; #000000; #0069cc; #000000; #0069cc; #000000; #0069cc; #0069cc" keyTimes="0; 0.006667; 0.073333; 0.273333; 0.426666; 0.686667; 0.82; 1" keySplines="0 0 1 1; 0 0 1 1; 0 0 1 1; 0 0 1 1; 0 0 1 1; 0 0 1 1; 0 0 1 1" calcMode="spline" /></path></g><g id="i5" transform="matrix(1,0,0,1,0,0)"><path fill="#000000" d="M1824,2228C1759,2149,1652,2020,1586,1940C1521,1860,1458,1786,1448,1774C1429,1753,1430,1752,1612,1584C2158,1078,2559,718,2573,723C2580,725,2665,825,2763,946C2861,1066,2974,1205,3013,1253C3053,1302,3085,1345,3085,1350C3085,1355,2966,1463,2820,1591C2674,1718,2472,1898,2371,1989C2166,2173,1996,2326,1964,2353C1943,2371,1941,2370,1824,2228C1824,2228,1824,2228,1824,2228Z"><animate repeatCount="indefinite" attributeName="fill" dur="5s" begin="0s" fill="freeze" values="#000000; #000000; #0069cc; #000000; #0069cc; #000000; #0069cc; #0069cc" keyTimes="0; 0.006667; 0.04; 0.313333; 0.373333; 0.733333; 0.773333; 1" keySplines="0 0 1 1; 0 0 1 1; 0 0 1 1; 0 0 1 1; 0 0 1 1; 0 0 1 1; 0 0 1 1" calcMode="spline" /></path></g></g></g></g></g></g></svg>